<?xml version="1.0" standalone="no"?><svg data-noselect="" 
  viewBox="-37.642443891616395 85.01305475773498 547.4955821269264 411" 
  width="547.4955821269264" 
  height="411" 
  ref="svg_canvas" 
  preserveAspectRatio="none" 
  version="1.1" xmlns="http://www.w3.org/2000/svg" 
  style="background: #FFFFFF;">
    <defs></defs>
    <g id="shape_JZfIU9uh3q" class="icon"  ref="shape_JZfIU9uh3q" key="shape_JZfIU9uh3q" transform="translate(42.357556108383605,197.6452423583) rotate(0,92.867812399435,92.867812399435) scale(1,1)" style="cursor:move;display:inline;opacity:1;" filter="">
            <g style="display:inline"><rect fill="rgba(0,0,0,0)" width="183.46794075254277" height="205.73562479887" x="-10" y="-10"></rect><svg version="1.1" id="图层_1" xmlns="http://www.w3.org/2000/svg" xmlns:xlink="http://www.w3.org/1999/xlink" x="0px" y="0px" width="163.46794075254277" height="185.73562479887" viewBox="0 0 127 144.3000030517578" style="enable-background:new 0 0 127 144.3;" xml:space="preserve" class="style-removed" preserveAspectRatio="none" data-parent="shape_JZfIU9uh3q">

<g>
	<polygon points="60.4,105.1 60.4,105.1 57.7,97.3 	" fill="#21334D"></polygon>
	<polygon points="69.4,97.3 66.6,105.3 66.6,144.3 66.6,144.3 66.6,105.3 	" fill="#21334D"></polygon>
	<polygon points="108.9,60 75.9,79.1 75.9,79.1 	" fill="#21334D"></polygon>
	<polygon points="51.2,79.2 51.2,79.2 0,49.4 0,49.4 0,109.2 60.4,144.3 60.4,105.1 57.7,97.3 	" fill="#4D4751"></polygon>
	<polygon points="75.9,79.1 69.4,97.3 66.6,105.3 66.6,144.3 66.6,144.3 127,109.2 127,49.4 108.9,60 	" fill="#4D4751"></polygon>
	<polygon points="76.1,35.1 63.6,0 60.3,9.2 51,35.1 41.8,38.4 15.9,47.6 15.9,47.6 15.9,47.6 51,60.1 56.4,75.3 
		58,79.7 59.6,84 60.4,86.5 60.6,87 63.4,94.9 63.6,95.3 63.6,95.1 63.6,95.1 65.1,90.8 66.4,87.2 66.6,86.7 66.8,86.3 67.6,84 
		67.6,84 69.1,79.6 70.7,75.3 76.1,60.1 111.2,47.6 111.2,47.6 111.2,47.6 	" fill="#FCAF03"></polygon>
</g>
</svg></g>
        </g><g id="shape_Jpb3xzUR1b" class="brand_name"  ref="shape_Jpb3xzUR1b" key="shape_Jpb3xzUR1b" transform="translate(127.13313823531001,-77.16542524226998) rotate(0,387.14583757149,352.67848) scale(1,1)" style="cursor:move;display:inline;opacity:1;" filter="">
            <g style="display:inline"><svg xmlns="http://www.w3.org/2000/svg" version="1.1" xmlns:xlink="http://www.w3.org/1999/xlink" width="604.88" height="705.35696" viewBox="0 0 604.88 705.35696" preserveAspectRatio="none" data-parent="shape_Jpb3xzUR1b"><rect fill="rgba(0,0,0,0)" width="202" height="100" x="100.72" y="302.67848"></rect><g data-width="201.44" transform="translate(100.72, 0)"><path d="M63.66-60.53L64.66-66.58L78.46-66.58L77.45-60.53L96.49-60.53L96.49-6.65L83.60-6.65L83.60-6.75L77.76-6.75L74.63-5.04L74.63-13.50L83.60-13.50L83.60-53.68L76.35-53.68L68.79-6.65L55.09-6.75L51.77-6.75L51.77-15.21L54.89-13.50L56.10-13.50L62.55-53.68L49.25-53.68L49.25-62.24L52.48-60.53L63.66-60.53ZM46.53-44.62L46.53-35.76Q46.13-36.96 45.02-37.32Q43.91-37.67 43.01-37.67L43.01-37.67L29.01-37.67L19.54-14.50L33.44-15.41L30.01-30.52L44.62-30.52L47.64-16.32L47.74-16.32L47.74-15.81L49.65-6.85L35.35-6.85L34.95-8.66L4.33-6.85L4.33-13.60L14.00-37.67L4.23-37.67L4.23-46.33L7.35-44.62L46.53-44.62ZM45.12-65.77L45.12-56.81Q44.62-58.01 43.51-58.42Q42.40-58.82 41.50-58.82L41.50-58.82L6.75-58.82L6.75-67.48L9.87-65.77L45.12-65.77Z" transform="translate(0 388.67848) skewX(0)" fill="rgb(49, 49, 49)" stroke="rgb(49, 49, 49)" stroke-width="0.168" data-glyph-w="100.72" data-glyph-h="100.72" data-glyph-ascender="86.51848" data-glyph-descender="-14.20152"></path><path d="M18.94-53.89L80.98-53.89L80.98-16.82L20.35-16.82L20.35-51.47L18.94-53.89ZM98.20-48.95L98.20-6.24L4.33-6.24L4.33-46.13L2.52-48.04L17.22-48.04L17.22-12.99L85.41-12.99L85.41-47.04L83.60-48.95L98.20-48.95ZM98.00-64.46L98.00-55.60Q97.50-56.91 96.39-57.26Q95.28-57.61 94.37-57.61L94.37-57.61L4.63-57.61L4.63-66.17L7.76-64.46L98.00-64.46ZM33.24-31.73L33.24-23.06L44.72-23.06L44.72-31.73L33.24-31.73ZM33.24-46.83L33.24-38.68L44.72-38.68L44.72-46.83L33.24-46.83ZM57.61-23.06L68.09-23.06L68.09-31.73L57.61-31.73L57.61-23.06ZM68.09-38.68L68.09-46.83L57.61-46.83L57.61-38.68L68.09-38.68Z" transform="translate(100.72 388.67848) skewX(0)" fill="rgb(49, 49, 49)" stroke="rgb(49, 49, 49)" stroke-width="0.168" data-glyph-w="100.72" data-glyph-h="100.72" data-glyph-ascender="86.51848" data-glyph-descender="-14.20152"></path></g></svg></g>
        </g><g id="shape_PTgxePPlW6" class="brand_slogan"  ref="shape_PTgxePPlW6" key="shape_PTgxePPlW6" transform="translate(203.03313823531002,226.23305475773) rotate(0,305.37376989643997,104.28) scale(1,1)" style="cursor:move;display:inline;opacity:1;" filter="">
            <g style="display:inline"><svg xmlns="http://www.w3.org/2000/svg" version="1.1" xmlns:xlink="http://www.w3.org/1999/xlink" width="283.28" height="208.56" viewBox="0 0 283.28 208.56" preserveAspectRatio="none" data-parent="shape_PTgxePPlW6"><rect fill="rgba(0,0,0,0)" width="168" height="28" x="28.82" y="90.28"></rect><g data-width="167.53066" transform="translate(28.82, 0)"><path d="M22.13 0L17.52 0L11.18-15.04L6.11-3.08L11.79-3.08L13.23 0L0.20 0L8.62-19.83L13.72-19.83L22.13 0Z" transform="translate(0 115.28) " fill="rgb(49, 49, 49)" stroke="rgb(49, 49, 49)" stroke-width="0.048" data-glyph-w="22.3355" data-glyph-h="34.584" data-glyph-ascender="28.82" data-glyph-descender="-5.764"></path><path d="M15.59-6.34L15.59-19.83L20.20-19.83L20.20 0L15.59 0L5.79-13.49L5.79 0L1.18 0L1.18-19.83L5.79-19.83L15.59-6.34Z" transform="translate(22.3355 115.28) " fill="rgb(49, 49, 49)" stroke="rgb(49, 49, 49)" stroke-width="0.048" data-glyph-w="21.38444" data-glyph-h="34.584" data-glyph-ascender="28.82" data-glyph-descender="-5.764"></path><path d="M5.97-19.86L5.97 0L1.35 0L1.35-19.86L5.97-19.86Z" transform="translate(43.71994 115.28) " fill="rgb(49, 49, 49)" stroke="rgb(49, 49, 49)" stroke-width="0.048" data-glyph-w="7.32028" data-glyph-h="34.584" data-glyph-ascender="28.82" data-glyph-descender="-5.764"></path><path d="M12.28-10.55L18.42-19.86L23.06-19.86L23.06 0L18.42 0L18.42-12.91L14.58-7.09L10.00-7.09L5.97-13.06L5.97 0L1.33 0L1.33-19.86L5.97-19.86L12.28-10.55Z" transform="translate(51.040220000000005 115.28) " fill="rgb(49, 49, 49)" stroke="rgb(49, 49, 49)" stroke-width="0.048" data-glyph-w="24.38172" data-glyph-h="34.584" data-glyph-ascender="28.82" data-glyph-descender="-5.764"></path><path d="M22.13 0L17.52 0L11.18-15.04L6.11-3.08L11.79-3.08L13.23 0L0.20 0L8.62-19.83L13.72-19.83L22.13 0Z" transform="translate(75.42194 115.28) " fill="rgb(49, 49, 49)" stroke="rgb(49, 49, 49)" stroke-width="0.048" data-glyph-w="22.3355" data-glyph-h="34.584" data-glyph-ascender="28.82" data-glyph-descender="-5.764"></path><path d="M0.32-19.86L19.37-19.86L19.37-16.74L12.16-16.74L12.16 0L7.52 0L7.52-16.74L0.32-16.74L0.32-19.86Z" transform="translate(97.75744 115.28) " fill="rgb(49, 49, 49)" stroke="rgb(49, 49, 49)" stroke-width="0.048" data-glyph-w="19.684060000000002" data-glyph-h="34.584" data-glyph-ascender="28.82" data-glyph-descender="-5.764"></path><path d="M5.97-19.86L5.97 0L1.35 0L1.35-19.86L5.97-19.86Z" transform="translate(117.4415 115.28) " fill="rgb(49, 49, 49)" stroke="rgb(49, 49, 49)" stroke-width="0.048" data-glyph-w="7.32028" data-glyph-h="34.584" data-glyph-ascender="28.82" data-glyph-descender="-5.764"></path><path d="M1.18-15.33Q1.18-16.54 1.79-17.58Q2.39-18.62 3.43-19.22Q4.47-19.83 5.68-19.83L5.68-19.83L15.68-19.83Q16.92-19.83 17.95-19.22Q18.99-18.62 19.60-17.58Q20.20-16.54 20.20-15.33L20.20-15.33L20.20-4.52Q20.20-3.31 19.60-2.26Q18.99-1.21 17.95-0.61Q16.92 0 15.68 0L15.68 0L5.68 0Q4.47 0 3.43-0.62Q2.39-1.24 1.79-2.28Q1.18-3.31 1.18-4.52L1.18-4.52L1.18-15.33ZM13.26-3.11Q14.21-3.11 14.89-3.79Q15.56-4.47 15.56-5.42L15.56-5.42L15.56-14.41Q15.56-15.39 14.89-16.07Q14.21-16.74 13.26-16.74L13.26-16.74L8.13-16.74Q7.15-16.74 6.47-16.07Q5.79-15.39 5.79-14.41L5.79-14.41L5.79-5.42Q5.79-4.47 6.47-3.79Q7.15-3.11 8.13-3.11L8.13-3.11L13.26-3.11Z" transform="translate(124.76178 115.28) " fill="rgb(49, 49, 49)" stroke="rgb(49, 49, 49)" stroke-width="0.048" data-glyph-w="21.38444" data-glyph-h="34.584" data-glyph-ascender="28.82" data-glyph-descender="-5.764"></path><path d="M15.59-6.34L15.59-19.83L20.20-19.83L20.20 0L15.59 0L5.79-13.49L5.79 0L1.18 0L1.18-19.83L5.79-19.83L15.59-6.34Z" transform="translate(146.14622 115.28) " fill="rgb(49, 49, 49)" stroke="rgb(49, 49, 49)" stroke-width="0.048" data-glyph-w="21.38444" data-glyph-h="34.584" data-glyph-ascender="28.82" data-glyph-descender="-5.764"></path></g></svg></g>
        </g>
  </svg>